<svg t="1727159089946" class="icon" viewBox="0 0 1024 1024" version="1.1" xmlns="http://www.w3.org/2000/svg" p-id="7332" width="200" height="200"><path d="M660.560169 521.590023c15.981289-4.473761 31.323826-8.946272 46.020112-13.423783 12.787531-3.832509 25.888813-7.670019 39.311346-11.503778 13.422533-3.837509 24.61006-7.353768 33.560082-10.546276l-13.422533 50.815124c-3.837509 14.062534-7.353768 24.61006-10.547526 31.641327-6.391266 17.261292-13.901284 33.237581-22.533805 47.940117-8.627521 14.702536-16.777541 27.485067-24.44881 38.356344-8.950022 12.782531-18.217544 24.60881-27.802568 35.473837l-117.935288 35.472587 96.841486 17.261292c-12.783781 10.863777-26.528815 22.052554-41.230101 33.561332-12.783781 9.585023-27.323817 19.652548-43.622607 30.198824-16.30379 10.547526-33.398832 20.29255-51.298875 29.243821-17.895044 8.951272-37.871342 13.585033-59.922646 13.901284-22.055054 0.322501-42.987605-1.118753-62.802653-4.311261-23.012556-3.197508-46.025112-8.627521-69.032669-16.29879 7.031267-10.868777 14.701286-23.012556 23.007556-36.435089 7.031267-11.508778 15.502538-25.087561 25.410062-40.752599 9.907524-15.658788 20.29255-33.076331 31.162576-52.251378C441.952135 648.152832 471.678458 597.335208 500.443528 547.476337 529.203598 497.618715 555.091161 452.554855 578.104968 412.286007 604.310032 365.625893 629.560093 321.519535 653.851403 279.971934c-30.043823 34.516334-61.685151 73.187679-94.922732 116.015283C530.164851 432.422306 498.202273 475.728661 463.045937 525.906284c-35.156336 50.175122-70.947673 104.989006-107.384012 164.434151-7.670019 12.14253-16.29879 26.205064-25.887563 42.187603-9.590023 15.981289-19.653798 32.91883-30.201324 50.813874-10.546276 17.900044-21.415052 36.275089-32.60258 55.131385-11.186277 18.857546-22.211304 37.231341-33.076331 55.131385-25.571312 41.547601-51.776376 85.016458-78.622692 130.395318 0.640002-13.422533 3.198758-30.678825 7.671269-51.772626 3.832509-17.900044 10.223775-40.273848 19.175047-67.118914 8.950022-26.846316 21.732553-58.486393 38.353844-94.922732 10.865027-23.007556 19.175047-40.90885 24.927561-53.691381 5.751264-12.783781 10.228775-22.690055 13.422533-29.721323 3.197508-7.671269 5.751264-12.783781 7.671269-15.340037-3.193758-3.833759-3.833759-11.505028-1.920005-23.013806 1.280003-10.223775 4.956262-25.087561 11.026277-44.585109 6.073765-19.491298 16.46004-46.821364 31.161326-81.9777 14.702536-35.790087 34.038833-74.306431 58.008892-115.531532 23.968809-41.231351 50.976374-82.138951 81.020198-122.7303 30.043823-40.586349 62.641403-79.897695 97.797739-117.930288 35.156336-38.032593 71.108924-71.752675 107.866513-101.152747 36.75259-29.403822 73.506429-53.535131 110.259019-72.392677 36.75759-18.857546 72.392677-29.560072 106.909011-32.118828 0.640002 22.372555-1.601254 51.933877-6.713766 88.691467-5.112512 36.75259-11.503778 76.065186-19.175047 117.930288-7.671269 41.870102-16.29879 84.375206-25.888813 127.519061-9.585023 43.150105-18.857546 82.300201-27.802568 117.456537L660.560169 521.590023zM660.560169 521.590023" fill="#f67987" p-id="7333"></path></svg>